# xmcd CD database file
#
# Track frame offsets:
#	150
#	14454
#	28712
#	47344
#	73161
#	90484
#	116151
#	132394
#	144714
#	164057
#	176884
#	203602
#
# Disc length: 3012 seconds
#
# Revision: 0
# Processed by: cddbd v1.5.2PL0 Copyright (c) Steve Scherf et al.
# Submitted via: CDex 1.51
#
DISCID=af0bc20c
DTITLE=Leo Gandelman - Radames e o sax
DYEAR=2006
DGENRE=Jazz
TTITLE0=Bate Papo
TTITLE1=Assim e Melhor
TTITLE2=Serenata no Joa Brasiliana 7
TTITLE3=Variacoes sobre um tema de Viola
TTITLE4=Samba Cancao
TTITLE5=Choro
TTITLE6=A Fumaca do meu Cachimbo
TTITLE7=Pe ante Pe
TTITLE8=Saudades de Alguem
TTITLE9=Remexendo
TTITLE10=Amigo Pedro
TTITLE11=Valsa Triste
EXTD=YEAR: 2006
EXTT0=
EXTT1=
EXTT2=
EXTT3=
EXTT4=
EXTT5=
EXTT6=
EXTT7=
EXTT8=
EXTT9=
EXTT10=
EXTT11=
PLAYORDER=
